<svg width="27" height="29" viewBox="0 0 27 29" fill="none" xmlns="http://www.w3.org/2000/svg">
<mask id="mask0_2_8" style="mask-type:luminance" maskUnits="userSpaceOnUse" x="0" y="0" width="27" height="29">
<path fill-rule="evenodd" clip-rule="evenodd" d="M0.666664 0.667336H26.3798V28.2953H0.666664V0.667336Z" fill="white"/>
</mask>
<g mask="url(#mask0_2_8)">
<path fill-rule="evenodd" clip-rule="evenodd" d="M7.60293 21.254C7.90826 21.254 8.2136 21.2927 8.51226 21.3727C9.4136 21.6153 10.1963 22.218 10.6603 23.0273C10.9616 23.5353 11.1283 24.1287 11.1336 24.734C11.1336 25.6007 11.8296 26.2953 12.6856 26.2953H14.3563C15.2083 26.2953 15.9043 25.6047 15.9083 24.7527C15.9029 23.8113 16.2709 22.9167 16.9443 22.2433C17.6083 21.5793 18.5363 21.1807 19.4643 21.2073C20.0723 21.222 20.6576 21.386 21.1736 21.6793C21.9163 22.1047 22.8643 21.8513 23.2936 21.118L24.1789 19.642C24.3763 19.302 24.4336 18.8753 24.3283 18.482C24.2243 18.0887 23.9629 17.7473 23.6109 17.546C22.7869 17.0713 22.1989 16.306 21.9549 15.3887C21.7136 14.4887 21.8456 13.506 22.3163 12.6967C22.6229 12.1633 23.0723 11.714 23.6109 11.4047C24.3336 10.982 24.5869 10.0367 24.1669 9.30067C24.1496 9.27134 24.1336 9.24067 24.1203 9.20867L23.3389 7.854C22.9136 7.114 21.9669 6.85934 21.2243 7.282C20.4216 7.75667 19.4669 7.89267 18.5496 7.65134C17.6336 7.414 16.8656 6.834 16.3869 6.01534C16.0803 5.50334 15.9136 4.90734 15.9083 4.30067C15.9203 3.84467 15.7603 3.43534 15.4696 3.13534C15.1803 2.83667 14.7736 2.66734 14.3563 2.66734H12.6856C12.2723 2.66734 11.8856 2.82867 11.5936 3.11934C11.3029 3.41134 11.1443 3.79934 11.1469 4.21267C11.1189 6.162 9.5256 7.73134 7.59626 7.73134C6.9776 7.72467 6.3816 7.558 5.86426 7.24867C5.1376 6.83534 4.18826 7.09 3.76293 7.83L2.86026 9.314C2.44693 10.0313 2.70026 10.9793 3.43626 11.4073C4.52826 12.0393 5.2096 13.218 5.2096 14.482C5.2096 15.746 4.52826 16.9233 3.4336 17.5567C2.7016 17.9807 2.44826 18.9233 2.87226 19.6567L3.7136 21.1073C3.9216 21.482 4.2616 21.7527 4.65493 21.8633C5.04693 21.9727 5.47893 21.926 5.83893 21.726C6.36826 21.4153 6.98426 21.254 7.60293 21.254ZM14.3563 28.2953H12.6856C10.7269 28.2953 9.1336 26.7033 9.1336 24.7447C9.13093 24.5033 9.0616 24.2527 8.93226 24.0353C8.72293 23.67 8.38426 23.4087 7.9936 23.3047C7.6056 23.2007 7.18026 23.258 6.83093 23.4607C5.9936 23.9273 5.00826 24.0407 4.10693 23.7873C3.20693 23.5327 2.4296 22.914 1.9736 22.094L1.14026 20.658C0.165597 18.9673 0.745597 16.8007 2.4336 15.8247C2.91226 15.5487 3.2096 15.034 3.2096 14.482C3.2096 13.93 2.91226 13.414 2.4336 13.138C0.744264 12.1567 0.165597 9.98467 1.13893 8.294L2.04293 6.81C3.00426 5.138 5.1776 4.54867 6.87226 5.522C7.10293 5.65934 7.3536 5.72867 7.60826 5.73134C8.43893 5.73134 9.1336 5.046 9.14693 4.20334C9.1416 3.274 9.50826 2.382 10.1763 1.70867C10.8469 1.03667 11.7376 0.667336 12.6856 0.667336H14.3563C15.3109 0.667336 16.2389 1.05934 16.9043 1.74067C17.5683 2.426 17.9349 3.366 17.9069 4.31934C17.9096 4.534 17.9803 4.782 18.1083 4.99934C18.3203 5.35934 18.6549 5.61267 19.0523 5.71667C19.4496 5.81534 19.8656 5.762 20.2189 5.55267C21.9256 4.578 24.0976 5.162 25.0723 6.85533L25.9029 8.294C25.9243 8.33267 25.9429 8.37 25.9589 8.40867C26.8416 10.0767 26.2523 12.1767 24.6123 13.1353C24.3736 13.2727 24.1803 13.4647 24.0469 13.6967C23.8403 14.0553 23.7829 14.482 23.8869 14.874C23.9936 15.274 24.2483 15.606 24.6069 15.8113C25.4163 16.2767 26.0203 17.0607 26.2616 17.966C26.5029 18.87 26.3709 19.8513 25.9003 20.6607L25.0149 22.1353C24.0403 23.81 21.8683 24.39 20.1789 23.414C19.9536 23.2847 19.6936 23.214 19.4349 23.2073H19.4269C19.0416 23.2073 18.6456 23.3713 18.3576 23.658C18.0656 23.95 17.9056 24.3393 17.9083 24.7527C17.8989 26.7113 16.3056 28.2953 14.3563 28.2953Z" fill="#CACACA"/>
</g>
<path fill-rule="evenodd" clip-rule="evenodd" d="M13.5268 11.9661C12.1401 11.9661 11.0121 13.0955 11.0121 14.4821C11.0121 15.8688 12.1401 16.9955 13.5268 16.9955C14.9135 16.9955 16.0415 15.8688 16.0415 14.4821C16.0415 13.0955 14.9135 11.9661 13.5268 11.9661ZM13.5268 18.9955C11.0375 18.9955 9.01213 16.9715 9.01213 14.4821C9.01213 11.9928 11.0375 9.96613 13.5268 9.96613C16.0161 9.96613 18.0415 11.9928 18.0415 14.4821C18.0415 16.9715 16.0161 18.9955 13.5268 18.9955Z" fill="#CACACA"/>
</svg>
